<svg width="164" height="29" viewBox="0 0 164 29" fill="none" xmlns="http://www.w3.org/2000/svg">
<path d="M7.13012 28.276V12.3046H7.49681L12.5898 23.3053H16.9289L21.9608 12.3046H22.3275V28.276H29.5594V0.468551H21.2274L14.9325 13.7917H14.6677L8.39317 0.468551H0V28.276H7.13012Z" fill="#333333"/>
<path d="M41.5992 28.276V12.3046H41.9658L47.0588 23.3053H51.398L56.4298 12.3046H56.7965V28.276H64.0285V0.468551H55.6964L49.4015 13.7917H49.1367L42.8622 0.468551H34.469V28.276H41.5992Z" fill="#333333"/>
<path d="M93.649 15.8696V12.9972C93.649 5.15406 89.0858 0 80.7333 0C72.4216 0 67.7973 5.09294 67.7973 12.9972V15.8696C67.7973 23.672 72.4216 28.7649 80.7333 28.7649C89.0654 28.7649 93.649 23.672 93.649 15.8696ZM85.4188 12.8953V15.9104C85.4188 20.1477 83.6058 22.3275 80.7333 22.3275C77.8609 22.3275 76.0275 20.1477 76.0275 15.9104V12.8953C76.0275 8.67837 77.8609 6.41711 80.7333 6.41711C83.6058 6.41711 85.4188 8.67837 85.4188 12.8953Z" fill="#333333"/>
<path d="M109.437 20.331V13.4046H96.6029V20.331H109.437Z" fill="#333333"/>
<path d="M137.206 9.94142C137.185 5.03183 133.355 0 125.268 0C116.875 0 112.433 5.3374 112.433 12.6712V15.8492C112.433 22.7756 116.06 28.7649 125.207 28.7649C133.783 28.7649 137.226 23.3868 137.226 17.9475V12.6712H125.838V18.0698H129.668V18.6402C129.668 20.4533 128.262 22.2867 125.431 22.2867C121.56 22.2867 120.582 19.231 120.582 15.8085V12.7527C120.582 8.71912 122.171 6.47822 125.227 6.47822C127.814 6.47822 129.24 8.10796 129.444 9.94142H137.206Z" fill="#90CC61"/>
<path d="M139.711 19.8625C139.752 24.0794 142.502 28.7649 151.445 28.7649C159.35 28.7649 163.322 24.9147 163.322 19.4958C163.322 13.8732 159.431 11.8971 155.54 11.2656L151.853 10.6544C149.551 10.2674 148.186 9.57473 148.186 8.29131C148.186 6.9264 149.266 5.86707 151.568 5.86707C154.175 5.86707 155.398 7.39495 155.459 8.71912H162.772C162.752 4.2577 159.105 0 151.568 0C144.825 0 140.2 3.23911 140.2 8.94321C140.2 14.0158 143.521 16.2974 147.962 17.1123L151.486 17.7642C154.053 18.2531 155.438 18.8235 155.438 20.3514C155.438 21.6756 154.379 22.796 151.649 22.796C148.817 22.796 147.351 21.3089 147.29 19.8625H139.711Z" fill="#90CC61"/>
</svg>
