<svg width="180" height="180" viewBox="0 0 180 180" fill="none" xmlns="http://www.w3.org/2000/svg">
<path d="M67.499 97.5C71.6412 97.5 74.999 94.1421 74.999 90C74.999 85.8579 71.6412 82.5 67.499 82.5C63.3569 82.5 59.999 85.8579 59.999 90C59.999 94.1421 63.3569 97.5 67.499 97.5Z" stroke="#F8F9F8" stroke-width="10" stroke-linecap="round" stroke-linejoin="round"/>
<path d="M112.499 97.5C116.641 97.5 119.999 94.1421 119.999 90C119.999 85.8579 116.641 82.5 112.499 82.5C108.357 82.5 104.999 85.8579 104.999 90C104.999 94.1421 108.357 97.5 112.499 97.5Z" stroke="#F8F9F8" stroke-width="10" stroke-linecap="round" stroke-linejoin="round"/>
<path d="M56.25 56.25C82.5 48.75 97.5 48.75 123.75 56.25" stroke="#F8F9F8" stroke-width="10" stroke-linecap="round" stroke-linejoin="round"/>
<path d="M52.501 123.75C78.751 131.25 101.251 131.25 127.501 123.75" stroke="#F8F9F8" stroke-width="10" stroke-linecap="round" stroke-linejoin="round"/>
<path d="M116.249 127.5C116.249 135 127.499 150 131.249 150C142.499 150 152.497 137.497 157.499 127.5C162.502 114.997 161.249 83.7525 146.249 41.25C135.322 33.6375 123.749 31.2 112.499 30L104.999 48.75" stroke="#F8F9F8" stroke-width="10" stroke-linecap="round" stroke-linejoin="round"/>
<path d="M63.7506 127.5C63.7506 135 53.5806 150 50.0106 150C39.2931 150 29.7756 137.497 25.0131 127.5C20.2506 114.997 21.4431 83.7525 35.7231 41.25C46.1331 33.6375 56.5881 31.2 67.5006 30L75.0006 48.75" stroke="#F8F9F8" stroke-width="10" stroke-linecap="round" stroke-linejoin="round"/>
</svg>
