<svg width="180" height="180" viewBox="0 0 180 180" fill="none" xmlns="http://www.w3.org/2000/svg">
<path d="M89.9998 120C106.568 120 120 106.569 120 90C120 73.4315 106.568 60 89.9998 60C73.4312 60 59.9998 73.4315 59.9998 90C59.9998 106.569 73.4312 120 89.9998 120Z" stroke="#F8F9F8" stroke-width="10" stroke-linecap="round" stroke-linejoin="round"/>
<path d="M120 90.0001V101.25C120 106.223 121.975 110.992 125.492 114.508C129.008 118.025 133.777 120 138.75 120C143.723 120 148.492 118.025 152.008 114.508C155.525 110.992 157.5 106.223 157.5 101.25V90.0001C157.519 75.4959 152.865 61.3714 144.228 49.719C135.591 38.0667 123.431 29.5062 109.548 25.3058C95.6652 21.1054 80.7987 21.4885 67.1508 26.3983C53.5028 31.3081 41.7993 40.4834 33.774 52.5652C25.7488 64.6469 21.8285 78.9923 22.5941 93.4763C23.3597 107.96 28.7704 121.812 38.0246 132.981C47.2789 144.149 59.8844 152.04 73.9739 155.483C88.0634 158.927 102.887 157.741 116.25 152.1" stroke="#F8F9F8" stroke-width="10" stroke-linecap="round" stroke-linejoin="round"/>
</svg>
