<svg width="180" height="180" viewBox="0 0 180 180" fill="none" xmlns="http://www.w3.org/2000/svg">
<path d="M120.001 30H60.0007C43.4322 30 30.0007 43.4315 30.0007 60V120C30.0007 136.569 43.4322 150 60.0007 150H120.001C136.569 150 150.001 136.569 150.001 120V60C150.001 43.4315 136.569 30 120.001 30Z" stroke="#F8F9F8" stroke-width="10" stroke-linecap="round" stroke-linejoin="round"/>
<path d="M90 112.5C102.426 112.5 112.5 102.426 112.5 90C112.5 77.5736 102.426 67.5 90 67.5C77.5736 67.5 67.5 77.5736 67.5 90C67.5 102.426 77.5736 112.5 90 112.5Z" stroke="#F8F9F8" stroke-width="10" stroke-linecap="round" stroke-linejoin="round"/>
<path d="M123.75 56.25V56.2555" stroke="#F8F9F8" stroke-width="10" stroke-linecap="round" stroke-linejoin="round"/>
</svg>
