<svg width="180" height="180" viewBox="0 0 180 180" fill="none" xmlns="http://www.w3.org/2000/svg">
<path d="M89.9981 22.5C100.564 22.4977 110.984 24.976 120.417 29.7354C129.851 34.4948 138.036 41.4025 144.312 49.9024C150.589 58.4023 154.783 68.257 156.556 78.6735C158.329 89.0899 157.632 99.7772 154.521 109.875C157.341 116.123 158.192 123.082 156.961 129.826C155.729 136.57 152.472 142.779 147.625 147.627C142.777 152.474 136.568 155.731 129.824 156.963C123.081 158.194 116.121 157.343 109.873 154.523C98.1414 158.141 85.6449 158.492 73.7288 155.537C61.8126 152.582 50.9281 146.432 42.2469 137.751C33.5656 129.07 27.4164 118.185 24.4612 106.269C21.506 94.3532 21.8567 81.8567 25.4756 70.125C22.6523 63.8765 21.7993 56.9162 23.0301 50.1708C24.2609 43.4253 27.517 37.2148 32.3651 32.3659C37.2132 27.5171 43.4232 24.2599 50.1684 23.028C56.9136 21.796 63.874 22.6479 70.1231 25.47C76.5624 23.4925 83.2619 22.4913 89.9981 22.5V22.5Z" stroke="#F8F9F8" stroke-width="10" stroke-linecap="round" stroke-linejoin="round"/>
<path d="M59.9993 108.75C63.7493 123.75 77.6843 127.5 89.9993 127.5C111.787 127.5 119.999 118.597 119.999 108.75C119.999 97.4775 105.547 90 89.9993 90C74.4518 90 59.9993 82.5225 59.9993 71.25C59.9993 61.4025 68.2118 52.5 89.9993 52.5C102.314 52.5 116.249 56.25 119.999 71.25" stroke="#F8F9F8" stroke-width="10" stroke-linecap="round" stroke-linejoin="round"/>
</svg>

