<svg width="160" height="131" viewBox="0 0 160 131" fill="none" xmlns="http://www.w3.org/2000/svg">
<path d="M155 6.0751C147.5 9.7501 140.15 11.2426 132.5 13.5001C124.092 4.0126 111.627 3.4876 99.6496 7.9726C87.6721 12.4576 79.8271 23.4226 79.9996 36.0001V43.5001C55.6621 44.1226 33.9871 33.0376 19.9996 13.5001C19.9996 13.5001 -11.3654 69.2476 49.9996 96.0001C35.9596 105.353 21.9571 111.66 4.99963 111C29.8096 124.523 56.8471 129.173 80.2546 122.378C107.105 114.578 129.17 94.4551 137.637 64.3126C140.163 55.1451 141.417 45.674 141.365 36.1651C141.35 34.2976 152.69 15.3751 155 6.0676V6.0751Z" stroke="#F8F9F8" stroke-width="10" stroke-linecap="round" stroke-linejoin="round"/>
</svg>
