<svg width="60" height="60" viewBox="0 0 60 60" fill="none" xmlns="http://www.w3.org/2000/svg">
<rect width="60" height="60" rx="30" fill="#202226"/>
<path d="M42 35.6639V24.9973C41.9995 24.5296 41.8761 24.0703 41.6421 23.6655C41.408 23.2606 41.0717 22.9244 40.6667 22.6906L31.3333 17.3573C30.9279 17.1232 30.4681 17 30 17C29.5319 17 29.0721 17.1232 28.6667 17.3573L19.3333 22.6906C18.9284 22.9244 18.592 23.2606 18.3579 23.6655C18.1239 24.0703 18.0005 24.5296 18 24.9973V35.6639C18.0005 36.1316 18.1239 36.5909 18.3579 36.9957C18.592 37.4006 18.9284 37.7368 19.3333 37.9706L28.6667 43.3039C29.0721 43.538 29.5319 43.6612 30 43.6612C30.4681 43.6612 30.9279 43.538 31.3333 43.3039L40.6667 37.9706C41.0717 37.7368 41.408 37.4006 41.6421 36.9957C41.8761 36.5909 41.9995 36.1316 42 35.6639Z" stroke="#90CC61" stroke-width="2.5" stroke-linecap="round" stroke-linejoin="round"/>
<path d="M18.3599 23.6106L29.9999 30.3439L41.6399 23.6106" stroke="#90CC61" stroke-width="2.5" stroke-linecap="round" stroke-linejoin="round"/>
<path d="M30 43.7706V30.3306" stroke="#90CC61" stroke-width="2.5" stroke-linecap="round" stroke-linejoin="round"/>
</svg>
