<svg width="60" height="60" viewBox="0 0 60 60" fill="none" xmlns="http://www.w3.org/2000/svg">
<rect width="60" height="60" rx="30" fill="#202226"/>
<path d="M30 15V44.3333" stroke="#90CC61" stroke-width="2.5" stroke-linecap="round" stroke-linejoin="round"/>
<path d="M36.6667 20.3333H26.6667C25.429 20.3333 24.242 20.8249 23.3668 21.7001C22.4917 22.5753 22 23.7622 22 24.9999C22 26.2376 22.4917 27.4246 23.3668 28.2998C24.242 29.1749 25.429 29.6666 26.6667 29.6666H33.3333C34.571 29.6666 35.758 30.1583 36.6332 31.0334C37.5083 31.9086 38 33.0956 38 34.3333C38 35.5709 37.5083 36.7579 36.6332 37.6331C35.758 38.5083 34.571 38.9999 33.3333 38.9999H22" stroke="#90CC61" stroke-width="2.5" stroke-linecap="round" stroke-linejoin="round"/>
</svg>
